<svg xmlns="http://www.w3.org/2000/svg" width="20" height="20" viewBox="0 0 20 20" fill="none">
  <path fill-rule="evenodd" clip-rule="evenodd" d="M2.53999 0H5.91997C7.32996 0 8.45996 1.15002 8.45996 2.56104V5.97009C8.45996 7.39011 7.32996 8.53013 5.91997 8.53013H2.53999C1.13999 8.53013 0 7.39011 0 5.97009V2.56104C0 1.15002 1.13999 0 2.53999 0ZM2.53999 11.4699H5.91997C7.32996 11.4699 8.45996 12.6109 8.45996 14.031V17.44C8.45996 18.85 7.32996 20.0001 5.91997 20.0001H2.53999C1.13999 20.0001 0 18.85 0 17.44V14.031C0 12.6109 1.13999 11.4699 2.53999 11.4699ZM17.4601 0H14.0801C12.6701 0 11.5401 1.15002 11.5401 2.56104V5.97009C11.5401 7.39011 12.6701 8.53013 14.0801 8.53013H17.4601C18.8601 8.53013 20.0001 7.39011 20.0001 5.97009V2.56104C20.0001 1.15002 18.8601 0 17.4601 0ZM14.0801 11.4697H17.4601C18.8601 11.4697 20.0001 12.6107 20.0001 14.0308V17.4398C20.0001 18.8498 18.8601 19.9999 17.4601 19.9999H14.0801C12.6701 19.9999 11.5401 18.8498 11.5401 17.4398V14.0308C11.5401 12.6107 12.6701 11.4697 14.0801 11.4697Z" fill="#606568"/>
</svg>