<svg xmlns="http://www.w3.org/2000/svg" width="22" height="20" viewBox="0 0 22 20" fill="none">
  <g clip-path="url(#clip0_2001_114)">
    <path d="M10.7367 6.28427e-06C16.2775 0.00682106 20.7568 4.49231 20.75 10.0273C20.7432 15.5643 16.2381 20.0164 10.6592 20C5.19937 19.9837 0.740495 15.4716 0.750015 9.97343C0.759535 4.47799 5.24969 -0.00612701 10.7367 6.28427e-06ZM9.74052 9.06774C9.71332 9.19995 9.70176 9.29127 9.67592 9.37782C9.49911 9.96252 9.31891 10.5466 9.13938 11.1306C8.67833 12.6312 8.21456 14.1311 7.75759 15.6331C7.47946 16.5483 8.04932 17.253 8.99998 17.1589C9.27607 17.1317 9.55215 17.0608 9.81736 16.9763C11.0598 16.5804 12.1063 15.8375 13.1392 15.0736C13.3188 14.9407 13.3473 14.7547 13.2657 14.5482C13.1311 14.2061 12.8026 14.0677 12.4511 14.2306C12.1124 14.3874 11.7867 14.572 11.4514 14.7363C11.3596 14.7813 11.2542 14.7976 11.1012 14.8439C11.1305 14.6722 11.14 14.5564 11.1706 14.4466C11.2726 14.0786 11.3828 13.7127 11.4895 13.3461C12.0063 11.5783 12.5238 9.81124 13.0386 8.04348C13.2419 7.34497 12.8169 6.78275 12.09 6.80524C11.7779 6.81478 11.4616 6.85431 11.1556 6.91905C9.99281 7.1637 9.02718 7.7852 8.13296 8.53755C7.88339 8.74745 7.76983 9.05275 7.87251 9.24902C7.97587 9.44596 8.37845 9.56454 8.65453 9.4705C8.77421 9.42961 8.88846 9.36964 9.00338 9.31648C9.1421 9.25243 9.27607 9.17678 9.41887 9.12363C9.50727 9.09023 9.60792 9.08887 9.73916 9.06774H9.74052ZM10.4579 6.17419C11.0455 6.17419 11.5256 5.85185 11.75 5.3094C11.9241 4.88961 11.9669 4.45959 11.871 4.01255C11.7296 3.35219 11.1121 2.82882 10.4573 2.82337C9.81328 2.8186 9.26927 3.27655 9.13258 3.94508C9.0435 4.37714 9.06458 4.80715 9.18631 5.23035C9.35495 5.81369 9.84388 6.17351 10.4573 6.17351L10.4579 6.17419Z" fill="#606568"/>
  </g>
  <defs>
    <clipPath id="clip0_2001_114">
      <rect width="20.5" height="20" fill="white" transform="translate(0.75)"/>
    </clipPath>
  </defs>
</svg>