<svg width="100" height="100" viewBox="0 0 100 100" fill="none" xmlns="http://www.w3.org/2000/svg">
<path d="M0 53.9226V46.1127C0.0809132 45.9504 0.144192 45.7797 0.188754 45.6039C0.450989 43.837 0.631654 42.0554 0.965346 40.3021C6.49317 11.2926 36.8477 -6.67844 65.0652 2.34111C76.4128 5.9044 86.1133 13.4034 92.4173 23.4858C98.7212 33.5681 101.214 45.5703 99.4455 57.3278C97.6982 69.5245 91.9688 79.6323 82.7427 87.7745C82.4642 87.9873 82.1701 88.179 81.863 88.348C80.9828 87.6876 80.0641 87.0801 79.1119 86.5286C73.9818 83.9187 68.8241 81.362 63.6744 78.7899C62.565 78.2961 61.6275 77.4838 60.981 76.4561C60.3345 75.4285 60.0082 74.2319 60.0436 73.0184C60.0193 71.2287 60.0153 69.4382 60.0551 67.6498C60.0651 67.2377 60.1998 66.8383 60.4413 66.5043C62.9737 63.2715 64.949 59.6393 66.286 55.757C66.4427 55.3528 66.7354 55.0158 67.1138 54.8041C68.0264 54.3921 68.7965 53.7193 69.3272 52.8705C69.8579 52.0218 70.1255 51.0351 70.0962 50.0346C70.1218 47.9517 70.1022 45.8694 70.1015 43.7865C70.1184 42.4715 69.6527 41.196 68.7924 40.201C68.5695 39.9374 68.4376 39.6088 68.4162 39.2643C68.3974 36.108 68.3219 32.9476 68.4479 29.7959C68.6684 24.2542 65.9954 19.4099 60.8977 17.2387C57.5306 15.766 53.8997 14.9914 50.2245 14.9616C46.5494 14.9318 42.9063 15.6475 39.5158 17.0655C34.2199 19.1908 31.6468 23.4672 31.5699 29.1667C31.5254 32.4194 31.6185 35.6733 31.5969 38.9267C31.5788 39.425 31.4116 39.9065 31.1169 40.3088C30.3608 41.2577 29.9403 42.4301 29.921 43.643C29.9096 45.7906 29.9048 47.9382 29.921 50.0858C29.9128 50.8536 30.0754 51.6136 30.397 52.3109C30.7187 53.0081 31.1914 53.6252 31.7809 54.1174C32.0696 54.3659 32.2818 54.6912 32.393 55.0555C33.4964 59.1814 35.3698 63.0616 37.9148 66.4921C38.1429 66.8336 38.2687 67.2331 38.2775 67.6437C38.3179 69.2374 38.2586 70.8331 38.3024 72.4281C38.3826 75.3331 37.1119 77.3701 34.555 78.7353C29.8788 81.2317 25.2253 83.77 20.5945 86.3499C19.6865 86.9121 18.809 87.5219 17.9654 88.1767C17.7618 88.0837 17.5678 87.9709 17.3863 87.8398C8.34391 80.107 2.38083 69.3849 0.583116 57.6262C0.381553 56.391 0.193474 55.1564 0 53.9226Z" fill="#556080"/>
<path d="M17.9627 88.1724C18.8063 87.5175 19.6839 86.9078 20.5918 86.3456C25.2285 83.7764 29.8819 81.2382 34.5523 78.731C37.1092 77.3658 38.38 75.3286 38.2997 72.4236C38.2559 70.83 38.3152 69.2344 38.2748 67.6394C38.2661 67.2288 38.1402 66.8293 37.9121 66.4878C35.3672 63.0573 33.4937 59.1769 32.3904 55.051C32.2791 54.6868 32.0669 54.3616 31.7782 54.1131C31.1887 53.6208 30.716 53.0036 30.3943 52.3064C30.0727 51.6091 29.9101 50.8491 29.9183 50.0813C29.9022 47.9337 29.9069 45.7861 29.9183 43.6386C29.9376 42.4256 30.3582 41.2532 31.1142 40.3043C31.4089 39.902 31.5761 39.4207 31.5942 38.9224C31.6158 35.669 31.5228 32.4149 31.5672 29.1622C31.6441 23.4627 34.2172 19.1891 39.5132 17.0611C42.9037 15.6431 46.5467 14.9274 50.2219 14.9572C53.897 14.987 57.528 15.7616 60.895 17.2343C65.9941 19.4055 68.667 24.2498 68.4452 29.7916C68.3192 32.9432 68.3947 36.1036 68.4136 39.26C68.4349 39.6045 68.5668 39.9329 68.7897 40.1966C69.65 41.1916 70.1157 42.4672 70.0989 43.7822C70.0989 45.8651 70.1191 47.9473 70.0935 50.0301C70.1228 51.0306 69.8552 52.0173 69.3245 52.8661C68.7938 53.7148 68.0237 54.3877 67.1111 54.7998C66.7328 55.0115 66.44 55.3483 66.2833 55.7525C64.9463 59.6348 62.971 63.267 60.4387 66.4998C60.1971 66.8339 60.0624 67.2334 60.0524 67.6455C60.0126 69.4339 60.0167 71.2242 60.0409 73.0139C60.0055 74.2274 60.3318 75.424 60.9783 76.4516C61.6248 77.4793 62.5623 78.2918 63.6718 78.7856C68.8214 81.3577 73.9791 83.9143 79.1092 86.5241C80.0615 87.0756 80.9801 87.6831 81.8603 88.3435C81.663 88.5944 81.4461 88.8294 81.2118 89.0463C74.0537 94.8036 65.4357 98.4592 56.3198 99.6044C55.9595 99.6949 55.6113 99.8276 55.2823 99.9999H44.7369C44.1743 99.8072 43.6002 99.6497 43.0179 99.5282C35.8024 98.4974 28.9005 95.8982 22.7982 91.9136C21.0994 90.7997 19.5699 89.4264 17.9627 88.1724Z" fill="#E6EBEC"/>
</svg>
