<svg width="22" height="22" viewBox="0 0 22 22" fill="none" xmlns="http://www.w3.org/2000/svg">
<circle cx="11" cy="11" r="11" fill="#D9D9D9" fill-opacity="0.5"/>
<g clip-path="url(#clip0_2162_5952)">
<path d="M15.5333 17C15.313 16.8994 15.2463 16.7229 15.2426 16.4819C15.2333 15.9941 15.2537 15.495 15.1574 15.0243C14.9111 13.8344 13.8389 12.9803 12.65 12.9708C11.5519 12.9633 10.4519 12.9614 9.3537 12.9708C7.97407 12.9822 6.83148 14.1134 6.76296 15.5254C6.74815 15.8423 6.74815 16.163 6.75741 16.48C6.76481 16.7229 6.68704 16.8975 6.46852 16.9981H6.30185C6.15185 16.9317 6.05 16.8178 6 16.6584C6 16.2826 6 15.9068 6 15.5311C6.04259 15.2805 6.07037 15.0262 6.13333 14.7814C6.52037 13.2783 7.84259 12.225 9.36111 12.2155C10.4426 12.2079 11.5259 12.2098 12.6074 12.2155C14.3778 12.2231 15.813 13.5782 15.9722 15.3849C15.9759 15.4343 15.9907 15.4836 16 15.533V16.6603C15.95 16.8197 15.8481 16.9336 15.7 17.0019H15.5333V17Z" fill="#606568"/>
<path d="M11.2332 6C11.3777 6.03226 11.5258 6.05883 11.6684 6.09869C12.8814 6.42702 13.7147 7.57333 13.6592 8.83161C13.6036 10.1335 12.6832 11.2039 11.4314 11.4241C9.9925 11.6765 8.58324 10.6327 8.37027 9.15804C8.1499 7.62267 9.19064 6.20687 10.6721 6.03037C10.7147 6.02467 10.7573 6.00949 10.7999 6C10.9443 6 11.0888 6 11.2332 6ZM10.9814 10.7029C12.0258 10.7257 12.8962 9.85266 12.9203 8.75569C12.9462 7.69289 12.0777 6.78002 11.024 6.76294C9.97212 6.74586 9.10175 7.61128 9.07583 8.70255C9.0499 9.78054 9.90546 10.6801 10.9795 10.7029H10.9814Z" fill="#606568"/>
</g>
<defs>
<clipPath id="clip0_2162_5952">
<rect width="10" height="11" fill="white" transform="translate(6 6)"/>
</clipPath>
</defs>
</svg>
