<svg width="22" height="22" viewBox="0 0 22 22" fill="none" xmlns="http://www.w3.org/2000/svg">
<circle cx="11" cy="11" r="11" fill="#D9D9D9" fill-opacity="0.5"/>
<path d="M11 11.7C10.6211 11.7 10.2578 11.542 9.98985 11.2607C9.72194 10.9794 9.57143 10.5978 9.57143 10.2C9.57143 9.80218 9.72194 9.42064 9.98985 9.13934C10.2578 8.85804 10.6211 8.7 11 8.7C11.3789 8.7 11.7422 8.85804 12.0102 9.13934C12.2781 9.42064 12.4286 9.80218 12.4286 10.2C12.4286 10.397 12.3916 10.592 12.3198 10.774C12.248 10.956 12.1428 11.1214 12.0102 11.2607C11.8775 11.3999 11.72 11.5104 11.5467 11.5858C11.3734 11.6612 11.1876 11.7 11 11.7ZM11 6C9.93913 6 8.92172 6.4425 8.17157 7.23015C7.42143 8.0178 7 9.08609 7 10.2C7 13.35 11 18 11 18C11 18 15 13.35 15 10.2C15 9.08609 14.5786 8.0178 13.8284 7.23015C13.0783 6.4425 12.0609 6 11 6Z" fill="#606568"/>
</svg>
