<svg width="253" height="92" viewBox="0 0 253 92" fill="none" xmlns="http://www.w3.org/2000/svg">
<g clip-path="url(#clip0_6_77)">
<path d="M0 0.958008H16.3212C18.7905 0.958008 21.0695 1.40427 23.152 2.29084C25.2346 3.17741 27.0315 4.38529 28.5488 5.90258C30.0661 7.41986 31.2561 9.2168 32.1248 11.2994C32.9935 13.3819 33.4279 15.5894 33.4279 17.9338C33.4279 20.2781 32.9935 22.4856 32.1248 24.5682C31.2561 26.6507 30.0661 28.4477 28.5488 29.9649C27.0315 31.4822 25.2226 32.6842 23.1163 33.5767C21.0099 34.4633 18.7251 34.9095 16.2558 34.9095H9.03827V48.4342H0V0.963958V0.958008ZM9.03827 9.34771V26.5139H15.6727C16.9758 26.5139 18.1539 26.2878 19.219 25.8296C20.2781 25.3774 21.1944 24.7586 21.9501 23.9791C22.7057 23.1996 23.2948 22.2893 23.7054 21.248C24.1159 20.2067 24.3242 19.1 24.3242 17.9338C24.3242 16.7675 24.1159 15.6549 23.7054 14.6195C23.2948 13.5783 22.7057 12.6679 21.9501 11.8884C21.1885 11.1089 20.2781 10.4901 19.219 10.0379C18.1539 9.57976 16.9758 9.35366 15.6727 9.35366H9.03827V9.34771Z" fill="#393E42"/>
<path d="M50.8143 49.0828C49.0828 49.0828 47.2918 48.7377 45.4472 48.0415C43.6027 47.3513 41.9248 46.31 40.4075 44.9177C38.8902 43.5313 37.6347 41.776 36.6351 39.6518C35.6355 37.5276 35.1416 35.0345 35.1416 32.1725C35.1416 29.3105 35.6176 26.8174 36.5696 24.6932C37.5217 22.569 38.7593 20.8018 40.2766 19.3916C41.7939 17.9814 43.4956 16.9401 45.3818 16.2678C47.268 15.5954 49.1185 15.2622 50.9392 15.2622C53.0634 15.2622 54.9377 15.6192 56.5621 16.3332C58.1865 17.0473 59.5431 17.9695 60.6261 19.1V15.9108H69.5334V48.4283H60.6261V44.8047C60.6261 44.8047 60.6201 44.7928 60.6142 44.8047C59.5312 46.0542 58.1567 47.0776 56.4967 47.8809C54.8247 48.6841 52.9325 49.0828 50.8083 49.0828H50.8143ZM52.5755 40.8895C53.7893 40.8895 54.908 40.6634 55.9254 40.2052C56.9429 39.747 57.8235 39.1223 58.5614 38.319C59.2992 37.5157 59.8704 36.5875 60.2869 35.5224C60.6975 34.4633 60.9057 33.3209 60.9057 32.1071C60.9057 30.8932 60.6975 29.7568 60.2869 28.6917C59.8763 27.6326 59.2992 26.7103 58.5614 25.9249C57.8235 25.1454 56.9429 24.5266 55.9254 24.0744C54.908 23.6222 53.7893 23.3901 52.5755 23.3901C51.3617 23.3901 50.2252 23.6103 49.1601 24.0387C48.0951 24.473 47.1787 25.0799 46.3993 25.8594C45.6198 26.6389 45.001 27.5611 44.5488 28.6262C44.0966 29.6913 43.8645 30.8456 43.8645 32.1071C43.8645 33.3685 44.0906 34.5228 44.5488 35.5879C45.001 36.653 45.6198 37.5693 46.3993 38.3547C47.1787 39.1401 48.101 39.753 49.1601 40.2052C50.2193 40.6634 51.3617 40.8895 52.5755 40.8895Z" fill="#393E42"/>
<path d="M168.371 0.958008H177.278V48.4282H168.371V0.958008Z" fill="#393E42"/>
<path d="M197.039 49.0828C195.307 49.0828 193.516 48.7377 191.672 48.0415C189.827 47.3513 188.149 46.31 186.632 44.9177C185.115 43.5313 183.859 41.776 182.86 39.6518C181.86 37.5276 181.366 35.0345 181.366 32.1725C181.366 29.3105 181.842 26.8174 182.794 24.6932C183.746 22.569 184.984 20.8018 186.501 19.3916C188.018 17.9814 189.72 16.9401 191.606 16.2678C193.493 15.5954 195.343 15.2622 197.164 15.2622C199.288 15.2622 201.162 15.6192 202.787 16.3332C204.411 17.0473 205.768 17.9695 206.851 19.1V15.9108H215.758V48.4283H206.851V44.8047C206.851 44.8047 206.845 44.7928 206.839 44.8047C205.756 46.0542 204.381 47.0776 202.721 47.8809C201.049 48.6841 199.157 49.0828 197.033 49.0828H197.039ZM198.794 40.8895C200.008 40.8895 201.127 40.6634 202.144 40.2052C203.162 39.747 204.042 39.1223 204.78 38.319C205.518 37.5157 206.089 36.5875 206.506 35.5224C206.916 34.4633 207.124 33.3209 207.124 32.1071C207.124 30.8932 206.916 29.7568 206.506 28.6917C206.095 27.6326 205.518 26.7103 204.78 25.9249C204.042 25.1454 203.162 24.5266 202.144 24.0744C201.127 23.6222 200.008 23.3901 198.794 23.3901C197.58 23.3901 196.444 23.6103 195.379 24.0387C194.314 24.473 193.397 25.0799 192.618 25.8594C191.838 26.6389 191.22 27.5611 190.767 28.6262C190.315 29.6913 190.083 30.8456 190.083 32.1071C190.083 33.3685 190.309 34.5228 190.767 35.5879C191.22 36.653 191.838 37.5693 192.618 38.3547C193.397 39.1401 194.32 39.753 195.379 40.2052C196.438 40.6634 197.58 40.8895 198.794 40.8895Z" fill="#393E42"/>
<path d="M231.865 47.0003L218.924 15.9167H228.289L236.286 35.9449L243.766 15.9167H253L234.144 63.4524H225.237L231.871 47.0003H231.865Z" fill="#393E42"/>
<path d="M132.093 15.9167H121.865L108.524 32.1785L121.865 48.4343H132.093L118.759 32.1785L132.093 15.9167Z" fill="#393E42"/>
<path d="M108.525 0.958008H99.6172V48.4282H108.525V0.958008Z" fill="#393E42"/>
<path d="M92.3342 15.9167C90.1208 15.9167 88.2822 16.3809 86.8066 17.315C85.3309 18.2492 84.1826 19.5582 83.3614 21.2481V15.9167H74.5195V48.4343H83.4269V30.6493C83.4269 27.2934 86.1461 24.5683 89.5079 24.5683H95.9162V15.9167H92.3402H92.3342Z" fill="#393E42"/>
<path d="M147.587 15.2681C138.251 15.2681 130.677 22.8366 130.677 32.1784C130.677 41.5201 138.245 49.0887 147.587 49.0887C156.929 49.0887 164.497 41.5201 164.497 32.1784C164.497 22.8366 156.929 15.2681 147.587 15.2681ZM147.587 40.3717C143.059 40.3717 139.394 36.7005 139.394 32.1784C139.394 27.6563 143.065 23.985 147.587 23.985C152.109 23.985 155.78 27.6563 155.78 32.1784C155.78 36.7005 152.109 40.3717 147.587 40.3717Z" fill="#393E42"/>
<path d="M147.587 64.3508C147.307 64.3508 147.04 64.2378 146.843 64.0414L136.52 53.7179C136.157 53.355 136.109 52.7778 136.407 52.3553C136.609 52.0697 136.93 51.915 137.264 51.915C137.424 51.915 137.585 51.9507 137.734 52.0281C140.822 53.5632 144.136 54.3427 147.587 54.3427C151.038 54.3427 154.352 53.5632 157.44 52.0281C157.589 51.9507 157.75 51.915 157.911 51.915C158.238 51.915 158.565 52.0697 158.767 52.3553C159.071 52.7719 159.023 53.349 158.654 53.7179L148.331 64.0414C148.134 64.2378 147.867 64.3508 147.587 64.3508Z" fill="#05B6C7"/>
<path d="M157.904 12.4298C157.744 12.4298 157.583 12.3941 157.434 12.3168C154.352 10.7817 151.032 10.0022 147.581 10.0022C144.13 10.0022 140.815 10.7817 137.727 12.3168C137.579 12.3941 137.418 12.4298 137.257 12.4298C136.93 12.4298 136.603 12.2751 136.4 11.9895C136.097 11.573 136.145 10.9959 136.513 10.627L146.843 0.309407C147.039 0.113053 147.307 0 147.587 0C147.866 0 148.134 0.113053 148.33 0.309407L158.654 10.6329C159.017 10.9959 159.064 11.573 158.767 11.9955C158.565 12.2811 158.243 12.4358 157.91 12.4358L157.904 12.4298Z" fill="#05B6C7"/>
<path d="M3.51058 81.3147L0 91.0729H1.56489L2.45741 88.4906H6.27145L7.16397 91.0729H8.72886L5.21827 81.3147H3.51653H3.51058ZM2.88582 87.2529L4.32575 83.0878H4.4031L5.84304 87.2529H2.88582Z" fill="#393E42"/>
<path d="M15.7201 81.8978C15.0359 81.511 14.2147 81.3147 13.2568 81.3147H9.99609V91.0729H13.1556C14.1493 91.0729 14.9942 90.8766 15.6904 90.4839C16.3865 90.0912 16.9221 89.5318 17.291 88.8C17.6599 88.0681 17.8443 87.1934 17.8443 86.176C17.8443 85.1585 17.6599 84.2957 17.2969 83.5638C16.928 82.8379 16.4044 82.2786 15.7142 81.8919L15.7201 81.8978ZM16.0355 88.1395C15.7915 88.675 15.4226 89.0856 14.9288 89.3652C14.4349 89.6449 13.8161 89.7877 13.0723 89.7877H11.4658V82.5999H13.1616C13.8756 82.5999 14.4706 82.7368 14.9466 83.0164C15.4286 83.2901 15.7856 83.7007 16.0295 84.2303C16.2735 84.7658 16.3925 85.4143 16.3925 86.1819C16.3925 86.9495 16.2675 87.6099 16.0236 88.1455L16.0355 88.1395Z" fill="#393E42"/>
<path d="M21.8368 81.3147L18.3262 91.0729H19.8911L20.7836 88.4906H24.5976L25.4901 91.0729H27.055L23.5444 81.3147H21.8427H21.8368ZM21.206 87.2529L22.646 83.0878H22.7233L24.1633 87.2529H21.206Z" fill="#393E42"/>
<path d="M33.6893 81.7312C33.1895 81.4575 32.5588 81.3147 31.8031 81.3147H28.3223V91.0729H29.792V87.6397H31.7912C32.5469 87.6397 33.1776 87.5028 33.6774 87.2232C34.1772 86.9435 34.5521 86.5687 34.802 86.0867C35.0519 85.6107 35.1768 85.0692 35.1768 84.4683C35.1768 83.8673 35.0519 83.3318 34.802 82.8558C34.5521 82.3798 34.1832 81.999 33.6833 81.7253L33.6893 81.7312ZM33.487 85.4619C33.3501 85.7535 33.13 85.9796 32.8265 86.1462C32.529 86.3128 32.1363 86.3961 31.6603 86.3961H29.792V82.5761H31.6424C32.1304 82.5761 32.529 82.6594 32.8265 82.8201C33.13 82.9807 33.3442 83.2068 33.487 83.4925C33.6298 83.7781 33.6952 84.1053 33.6952 84.4742C33.6952 84.8431 33.6238 85.1704 33.487 85.4619Z" fill="#393E42"/>
<path d="M36.2842 82.5821H39.3247V91.0729H40.7944V82.5821H43.8349V81.3147H36.2842V82.5821Z" fill="#393E42"/>
<path d="M46.8398 81.3147H45.3701V91.0729H46.8398V81.3147Z" fill="#393E42"/>
<path d="M52.5283 89.2641H52.4212L49.702 81.3147H48.1133L51.6239 91.0729H53.3256L56.8362 81.3147H55.2475L52.5283 89.2641Z" fill="#393E42"/>
<path d="M59.5791 86.8186H63.9108V85.5571H59.5791V82.5821H64.2261V81.3147H58.1094V91.0729H64.2856V89.8055H59.5791V86.8186Z" fill="#393E42"/>
<path d="M73.0256 84.3791C72.7103 84.1887 72.3592 84.0935 71.9725 84.0935C71.5857 84.0935 71.2347 84.1887 70.9193 84.3791C70.6039 84.5695 70.3481 84.8194 70.1577 85.1348C69.9673 85.4501 69.8721 85.8012 69.8721 86.188C69.8721 86.5747 69.9673 86.9258 70.1577 87.2411C70.3481 87.5565 70.598 87.8123 70.9193 88.0027C71.2347 88.1931 71.5857 88.2884 71.9725 88.2884C72.3592 88.2884 72.7103 88.1931 73.0256 88.0027C73.341 87.8123 73.5969 87.5624 73.7813 87.2411C73.9717 86.9258 74.0669 86.5747 74.0669 86.188C74.0669 85.8012 73.9717 85.4501 73.7813 85.1348C73.5909 84.8194 73.341 84.5636 73.0256 84.3791Z" fill="#393E42"/>
<path d="M82.4631 82.951C82.9093 82.6714 83.4091 82.5286 83.9744 82.5286C84.2838 82.5286 84.5813 82.5702 84.861 82.6595C85.1406 82.7428 85.3905 82.8737 85.6166 83.0403C85.8427 83.2069 86.0331 83.4151 86.1879 83.6531C86.3426 83.8971 86.4497 84.1768 86.5092 84.4921H87.9967C87.9134 83.9685 87.7527 83.5044 87.5207 83.0938C87.2886 82.6833 86.9911 82.3382 86.6282 82.0526C86.2711 81.7669 85.8665 81.5527 85.4143 81.404C84.9621 81.2552 84.4802 81.1838 83.9625 81.1838C83.1235 81.1838 82.3679 81.3861 81.7074 81.7848C81.0469 82.1894 80.5233 82.7606 80.1425 83.5103C79.7617 84.2601 79.5713 85.1526 79.5713 86.1939C79.5713 87.2351 79.7617 88.1276 80.1425 88.8774C80.5233 89.6271 81.041 90.2043 81.7014 90.6029C82.3619 91.0075 83.1176 91.2039 83.9625 91.2039C84.498 91.2039 84.9978 91.1265 85.45 90.9659C85.9022 90.8052 86.3068 90.5851 86.6639 90.2935C87.0209 90.0019 87.3065 89.6568 87.5385 89.2522C87.7646 88.8476 87.9193 88.4073 87.9967 87.9313H86.5092C86.4497 88.2348 86.3425 88.5144 86.1819 88.7524C86.0272 88.9904 85.8308 89.1927 85.6047 89.3593C85.3786 89.5259 85.1287 89.6509 84.8491 89.7342C84.5694 89.8175 84.2779 89.8591 83.9684 89.8591C83.4151 89.8591 82.9153 89.7223 82.469 89.4426C82.0228 89.163 81.6717 88.7524 81.4158 88.205C81.16 87.6576 81.035 86.9912 81.035 86.1939C81.035 85.3965 81.16 84.7361 81.4158 84.1946C81.6717 83.6472 82.0227 83.2307 82.4631 82.951Z" fill="#393E42"/>
<path d="M94.9764 87.003C95.4762 86.7531 95.8511 86.4021 96.101 85.9499C96.3509 85.4976 96.4758 84.974 96.4758 84.3731C96.4758 83.7721 96.3509 83.2425 96.101 82.7844C95.8511 82.3262 95.4762 81.9633 94.9764 81.7074C94.4766 81.4456 93.8459 81.3147 93.0902 81.3147H89.6094V91.0729H91.0791V87.3779H93.0783C93.108 87.3779 93.1378 87.3779 93.1735 87.3779L95.1608 91.0729H96.8388L94.6789 87.122C94.78 87.0863 94.8812 87.0447 94.9704 87.003H94.9764ZM91.091 82.5761H92.9414C93.4294 82.5761 93.8221 82.6475 94.1196 82.7903C94.4171 82.9331 94.6432 83.1414 94.78 83.4151C94.9228 83.6829 94.9942 84.0042 94.9942 84.3731C94.9942 84.742 94.9228 85.0514 94.786 85.3132C94.6491 85.575 94.429 85.7714 94.1255 85.9082C93.828 86.0451 93.4353 86.1105 92.9593 86.1105H91.091V82.5761Z" fill="#393E42"/>
<path d="M99.6114 86.8186H103.937V85.5571H99.6114V82.5821H104.258V81.3147H98.1357V91.0729H104.312V89.8055H99.6114V86.8186Z" fill="#393E42"/>
<path d="M108.87 81.3147L105.359 91.0729H106.924L107.817 88.4906H111.631L112.523 91.0729H114.088L110.578 81.3147H108.876H108.87ZM108.239 87.2529L109.679 83.0878H109.757L111.196 87.2529H108.239Z" fill="#393E42"/>
<path d="M113.707 82.5821H116.748V91.0729H118.217V82.5821H121.264V81.3147H113.707V82.5821Z" fill="#393E42"/>
<path d="M124.263 81.3147H122.793V91.0729H124.263V81.3147Z" fill="#393E42"/>
<path d="M129.957 89.2641H129.844L127.131 81.3147H125.536L129.047 91.0729H130.748L134.265 81.3147H132.67L129.957 89.2641Z" fill="#393E42"/>
<path d="M137.008 86.8186H141.334V85.5571H137.008V82.5821H141.655V81.3147H135.532V91.0729H141.714V89.8055H137.008V86.8186Z" fill="#393E42"/>
<path d="M150.455 84.3791C150.14 84.1887 149.789 84.0935 149.402 84.0935C149.015 84.0935 148.664 84.1887 148.349 84.3791C148.034 84.5695 147.778 84.8194 147.587 85.1348C147.397 85.4501 147.302 85.8012 147.302 86.188C147.302 86.5747 147.397 86.9258 147.587 87.2411C147.778 87.5565 148.028 87.8123 148.349 88.0027C148.664 88.1931 149.015 88.2884 149.402 88.2884C149.789 88.2884 150.14 88.1931 150.455 88.0027C150.771 87.8123 151.027 87.5624 151.211 87.2411C151.401 86.9258 151.497 86.5747 151.497 86.188C151.497 85.8012 151.401 85.4501 151.211 85.1348C151.021 84.8194 150.771 84.5636 150.455 84.3791Z" fill="#393E42"/>
<path d="M158.773 81.3147H157.304V91.0729H158.773V81.3147Z" fill="#393E42"/>
<path d="M167.211 88.4846H167.116L162.154 81.3147H160.791V91.0729H162.261V83.9149H162.356L167.312 91.0729H168.669V81.3147H167.211V88.4846Z" fill="#393E42"/>
<path d="M177.1 88.4846H177.005L172.042 81.3147H170.68V91.0729H172.149V83.9149H172.239L177.201 91.0729H178.558V81.3147H177.1V88.4846Z" fill="#393E42"/>
<path d="M186.906 81.7848C186.246 81.3861 185.49 81.1838 184.651 81.1838C183.812 81.1838 183.05 81.3861 182.39 81.7848C181.73 82.1894 181.206 82.7606 180.825 83.5103C180.444 84.2601 180.254 85.1526 180.254 86.1939C180.254 87.2351 180.444 88.1276 180.825 88.8774C181.206 89.6271 181.73 90.2043 182.39 90.6029C183.05 91.0075 183.806 91.2039 184.651 91.2039C185.496 91.2039 186.246 91.0016 186.906 90.6029C187.567 90.1983 188.09 89.6271 188.471 88.8774C188.852 88.1276 189.042 87.2351 189.042 86.1939C189.042 85.1526 188.852 84.2541 188.471 83.5103C188.09 82.7606 187.567 82.1894 186.906 81.7848ZM187.204 88.205C186.948 88.7524 186.597 89.163 186.156 89.4426C185.716 89.7223 185.21 89.8651 184.651 89.8651C184.092 89.8651 183.586 89.7223 183.146 89.4426C182.705 89.163 182.354 88.7465 182.098 88.205C181.843 87.6576 181.718 86.9912 181.718 86.1939C181.718 85.3965 181.849 84.7301 182.098 84.1827C182.354 83.6353 182.705 83.2247 183.146 82.9451C183.586 82.6654 184.092 82.5226 184.651 82.5226C185.21 82.5226 185.71 82.6654 186.156 82.9451C186.603 83.2247 186.948 83.6412 187.204 84.1827C187.46 84.7301 187.584 85.3965 187.584 86.1939C187.584 86.9912 187.454 87.6576 187.204 88.205Z" fill="#393E42"/>
<path d="M196.652 81.3147L193.933 89.2641H193.825L191.106 81.3147H189.518L193.028 91.0729H194.73L198.24 81.3147H196.652Z" fill="#393E42"/>
<path d="M201.293 81.3147L197.782 91.0729H199.347L200.24 88.4906H204.054L204.946 91.0729H206.511L203.001 81.3147H201.299H201.293ZM200.668 87.2529L202.108 83.0878H202.185L203.625 87.2529H200.668Z" fill="#393E42"/>
<path d="M206.137 82.5821H209.177V91.0729H210.647V82.5821H213.693V81.3147H206.137V82.5821Z" fill="#393E42"/>
<path d="M216.692 81.3147H215.223V91.0729H216.692V81.3147Z" fill="#393E42"/>
<path d="M222.381 89.2641H222.274L219.554 81.3147H217.966L221.476 91.0729H223.178L226.689 81.3147H225.1L222.381 89.2641Z" fill="#393E42"/>
<path d="M229.438 89.8055V86.8186H233.763V85.5571H229.438V82.5821H234.085V81.3147H227.962V91.0729H234.138V89.8055H229.438Z" fill="#393E42"/>
</g>
<defs>
<clipPath id="clip0_6_77">
<rect width="253" height="91.2097" fill="white"/>
</clipPath>
</defs>
</svg>
