<svg width="976" height="755" viewBox="0 0 976 755" fill="none" xmlns="http://www.w3.org/2000/svg">
<g opacity="0.6">
<path d="M1095.29 377.357C1095.29 168.894 926.396 -7.38261e-06 717.934 -1.64948e-05C509.471 -2.5607e-05 340.577 168.894 340.577 377.357C340.577 585.819 509.471 754.713 717.934 754.713C926.396 754.713 1095.29 585.819 1095.29 377.357ZM535.098 377.357C535.098 276.312 617.022 194.521 717.934 194.521C818.846 194.521 900.77 276.445 900.77 377.357C900.77 478.268 818.845 560.193 717.934 560.193C617.022 560.193 535.098 478.268 535.098 377.357Z" fill="#393E42"/>
<path d="M-0.000407824 377.357C-0.000407551 371.116 2.52245 365.141 6.90413 360.76L237.275 130.389C245.374 122.289 258.254 121.227 267.681 127.866C274.055 132.38 277.507 139.55 277.507 146.986C277.507 150.571 276.71 154.156 274.984 157.476C240.727 226.388 223.333 300.345 223.333 377.357C223.333 454.368 240.727 528.326 274.984 597.238C276.71 600.558 277.507 604.143 277.507 607.728C277.507 615.03 274.055 622.333 267.681 626.848C258.387 633.619 245.507 632.557 237.275 624.325L6.90413 393.954C2.52245 389.572 -0.000408097 383.597 -0.000407824 377.357Z" fill="#05B6C7"/>
</g>
</svg>
