<svg width="22" height="40" viewBox="0 0 22 40" fill="none" xmlns="http://www.w3.org/2000/svg">
<path d="M10.5113 30.5095C4.70456 30.5095 0 25.805 0 19.9982C0 14.1915 4.70456 9.48694 10.5113 9.48694C16.318 9.48694 21.0226 14.1915 21.0226 19.9982C21.0226 25.805 16.318 30.5095 10.5113 30.5095ZM10.5113 14.9053C7.69669 14.9053 5.41838 17.1873 5.41838 19.9982C5.41838 22.8091 7.70039 25.0911 10.5113 25.0911C13.3222 25.0911 15.6042 22.8091 15.6042 19.9982C15.6042 17.1873 13.3222 14.9053 10.5113 14.9053Z" fill="white"/>
<path d="M10.5111 2.38419e-06C10.3373 2.38419e-06 10.1708 0.0702767 10.0488 0.192329L3.63179 6.60932C3.40618 6.83493 3.37659 7.19369 3.56152 7.45629C3.68727 7.63382 3.88699 7.72998 4.09411 7.72998C4.19397 7.72998 4.29383 7.70779 4.3863 7.65971C6.30585 6.70548 8.36594 6.22097 10.5111 6.22097C12.6563 6.22097 14.7164 6.70548 16.6359 7.65971C16.7284 7.70779 16.8282 7.72998 16.9281 7.72998C17.1315 7.72998 17.3349 7.63382 17.4607 7.45629C17.6493 7.19739 17.6197 6.83863 17.3904 6.60932L10.9734 0.192329C10.8514 0.0702767 10.6849 2.38419e-06 10.5111 2.38419e-06Z" fill="#05B6C7"/>
<path d="M16.9245 32.2737C16.8246 32.2737 16.7248 32.2959 16.6323 32.344C14.7164 33.2982 12.6526 33.7827 10.5075 33.7827C8.36232 33.7827 6.30223 33.2982 4.38268 32.344C4.29022 32.2959 4.19036 32.2737 4.0905 32.2737C3.88708 32.2737 3.68366 32.3699 3.5579 32.5474C3.36928 32.8063 3.39887 33.1651 3.62818 33.3944L10.0489 39.8077C10.1709 39.9297 10.3374 40 10.5112 40C10.685 40 10.8515 39.9297 10.9735 39.8077L17.3905 33.3907C17.6161 33.1651 17.6457 32.8063 17.4608 32.5437C17.335 32.3662 17.1353 32.27 16.9282 32.27L16.9245 32.2737Z" fill="#05B6C7"/>
</svg>
