<svg width="103" height="36" viewBox="0 0 103 36" fill="none" xmlns="http://www.w3.org/2000/svg">
<g clip-path="url(#clip0_2858_429)">
<path d="M0 0.37793H6.61236C7.61277 0.37793 8.53604 0.554066 9.37976 0.903991C10.2235 1.25392 10.9515 1.73066 11.5662 2.32952C12.1809 2.92839 12.663 3.63763 13.015 4.4596C13.3669 5.28158 13.5429 6.15287 13.5429 7.07817C13.5429 8.00348 13.3669 8.87477 13.015 9.69674C12.663 10.5187 12.1809 11.228 11.5662 11.8268C10.9515 12.4257 10.2187 12.9001 9.36529 13.2524C8.51193 13.6023 7.58625 13.7784 6.58584 13.7784H3.66175V19.1165H0V0.380278V0.37793ZM3.66175 3.6893V10.4647H6.3496C6.87753 10.4647 7.35483 10.3755 7.78633 10.1946C8.21542 10.0161 8.58666 9.77189 8.89281 9.46424C9.19896 9.15658 9.43761 8.79727 9.60395 8.38628C9.77028 7.97529 9.85465 7.53848 9.85465 7.07817C9.85465 6.61787 9.77028 6.1787 9.60395 5.77006C9.43761 5.35908 9.19896 4.99976 8.89281 4.69211C8.58425 4.38445 8.21542 4.14021 7.78633 3.96173C7.35483 3.78089 6.87753 3.69165 6.3496 3.69165H3.66175V3.6893Z" fill="white"/>
<path d="M20.5869 19.3727C19.8854 19.3727 19.1598 19.2365 18.4125 18.9618C17.6652 18.6893 16.9854 18.2783 16.3707 17.7288C15.756 17.1816 15.2474 16.4888 14.8424 15.6504C14.4374 14.812 14.2373 13.828 14.2373 12.6983C14.2373 11.5687 14.4302 10.5847 14.8159 9.74628C15.2016 8.90787 15.703 8.21037 16.3177 7.65378C16.9324 7.09719 17.6218 6.6862 18.386 6.42082C19.1502 6.15544 19.8999 6.02393 20.6375 6.02393C21.4981 6.02393 22.2575 6.16484 22.9156 6.44665C23.5737 6.72847 24.1233 7.09249 24.562 7.5387V6.27991H28.1707V19.1144H24.562V17.6842C24.562 17.6842 24.5596 17.6795 24.5572 17.6842C24.1185 18.1774 23.5616 18.5813 22.8891 18.8983C22.2117 19.2154 21.4451 19.3727 20.5845 19.3727H20.5869ZM21.298 16.1389C21.7898 16.1389 22.243 16.0496 22.6552 15.8688C23.0674 15.688 23.4242 15.4414 23.7231 15.1243C24.0221 14.8073 24.2535 14.4409 24.4222 14.0205C24.5885 13.6025 24.6729 13.1516 24.6729 12.6725C24.6729 12.1934 24.5885 11.7448 24.4222 11.3245C24.2559 10.9064 24.0221 10.5424 23.7231 10.2324C23.4242 9.92477 23.0674 9.68052 22.6552 9.50204C22.243 9.32355 21.7898 9.23196 21.298 9.23196C20.8063 9.23196 20.3458 9.31886 19.9143 9.48795C19.4828 9.65939 19.1116 9.89893 18.7958 10.2066C18.48 10.5142 18.2293 10.8783 18.0461 11.2986C17.8629 11.719 17.7689 12.1746 17.7689 12.6725C17.7689 13.1704 17.8605 13.626 18.0461 14.0464C18.2293 14.4667 18.48 14.8284 18.7958 15.1384C19.1116 15.4484 19.4852 15.6903 19.9143 15.8688C20.3434 16.0496 20.8063 16.1389 21.298 16.1389Z" fill="white"/>
<path d="M68.2134 0.37793H71.8221V19.1142H68.2134V0.37793Z" fill="white"/>
<path d="M79.8281 19.3727C79.1266 19.3727 78.401 19.2365 77.6537 18.9618C76.9064 18.6893 76.2266 18.2783 75.6119 17.7288C74.9972 17.1816 74.4886 16.4888 74.0836 15.6504C73.6786 14.812 73.4785 13.828 73.4785 12.6983C73.4785 11.5687 73.6714 10.5847 74.0571 9.74628C74.4428 8.90787 74.9442 8.21037 75.5589 7.65378C76.1736 7.09719 76.863 6.6862 77.6272 6.42082C78.3914 6.15544 79.1411 6.02393 79.8787 6.02393C80.7393 6.02393 81.4987 6.16484 82.1568 6.44665C82.8149 6.72847 83.3645 7.09249 83.8032 7.5387V6.27991H87.412V19.1144H83.8032V17.6842C83.8032 17.6842 83.8008 17.6795 83.7984 17.6842C83.3597 18.1774 82.8028 18.5813 82.1303 18.8983C81.4529 19.2154 80.6863 19.3727 79.8257 19.3727H79.8281ZM80.5393 16.1389C81.031 16.1389 81.4842 16.0496 81.8964 15.8688C82.3087 15.688 82.6654 15.4414 82.9643 15.1243C83.2633 14.8073 83.4947 14.4409 83.6634 14.0205C83.8298 13.6025 83.9141 13.1516 83.9141 12.6725C83.9141 12.1934 83.8298 11.7448 83.6634 11.3245C83.4971 10.9064 83.2633 10.5424 82.9643 10.2324C82.6654 9.92477 82.3087 9.68052 81.8964 9.50204C81.4842 9.32355 81.031 9.23196 80.5393 9.23196C80.0475 9.23196 79.587 9.31886 79.1555 9.48795C78.724 9.65939 78.3528 9.89893 78.037 10.2066C77.7212 10.5142 77.4705 10.8783 77.2873 11.2986C77.1041 11.719 77.0101 12.1746 77.0101 12.6725C77.0101 13.1704 77.1017 13.626 77.2873 14.0464C77.4705 14.4667 77.7212 14.8284 78.037 15.1384C78.3528 15.4484 78.7265 15.6903 79.1555 15.8688C79.5846 16.0496 80.0475 16.1389 80.5393 16.1389Z" fill="white"/>
<path d="M93.9375 18.5507L88.6943 6.28223H92.4887L95.7286 14.1872L98.7587 6.28223H102.5L94.8607 25.0443H91.252L93.9399 18.5507H93.9375Z" fill="white"/>
<path d="M53.5158 6.28223H49.3719L43.9673 12.7007L49.3719 19.1167H53.5158L48.1136 12.7007L53.5158 6.28223Z" fill="white"/>
<path d="M43.9676 0.37793H40.3589V19.1142H43.9676V0.37793Z" fill="white"/>
<path d="M59.7934 6.02612C56.0111 6.02612 52.9424 9.0134 52.9424 12.7005C52.9424 16.3877 56.0087 19.3749 59.7934 19.3749C63.5781 19.3749 66.6444 16.3877 66.6444 12.7005C66.6444 9.0134 63.5781 6.02612 59.7934 6.02612ZM59.7934 15.9344C57.9589 15.9344 56.474 14.4854 56.474 12.7005C56.474 10.9157 57.9613 9.46666 59.7934 9.46666C61.6255 9.46666 63.1128 10.9157 63.1128 12.7005C63.1128 14.4854 61.6255 15.9344 59.7934 15.9344Z" fill="white"/>
<path d="M37.4083 6.28223C36.5116 6.28223 35.7667 6.46541 35.1689 6.83412C34.571 7.20283 34.1058 7.7195 33.7731 8.38647V6.28223H30.1909V19.1167H33.7996V12.0971C33.7996 10.7725 34.9013 9.69693 36.2633 9.69693H38.8595V6.28223H37.4108H37.4083Z" fill="white"/>
<path d="M59.7931 25.3988C59.6798 25.3988 59.5713 25.3542 59.4917 25.2767L55.3093 21.2021C55.1622 21.0588 55.143 20.831 55.2635 20.6643C55.3455 20.5515 55.4756 20.4905 55.6106 20.4905C55.6757 20.4905 55.7408 20.5046 55.8011 20.5351C57.0522 21.141 58.3949 21.4487 59.7931 21.4487C61.1912 21.4487 62.534 21.141 63.7851 20.5351C63.8453 20.5046 63.9104 20.4905 63.9755 20.4905C64.1081 20.4905 64.2407 20.5515 64.3226 20.6643C64.4456 20.8287 64.4263 21.0565 64.2768 21.2021L60.0944 25.2767C60.0148 25.3542 59.9064 25.3988 59.7931 25.3988Z" fill="#05B6C7"/>
<path d="M63.9734 4.906C63.9083 4.906 63.8432 4.8919 63.7829 4.86137C62.5342 4.25546 61.1891 3.94781 59.7909 3.94781C58.3928 3.94781 57.0501 4.25546 55.7989 4.86137C55.7387 4.8919 55.6736 4.906 55.6085 4.906C55.4759 4.906 55.3433 4.84493 55.2614 4.73221C55.1384 4.56781 55.1577 4.34001 55.3072 4.1944L59.492 0.122121C59.5716 0.0446213 59.6801 0 59.7934 0C59.9067 0 60.0151 0.0446213 60.0947 0.122121L64.2771 4.19675C64.4242 4.34001 64.4435 4.56781 64.3229 4.73456C64.241 4.84728 64.1108 4.90834 63.9758 4.90834L63.9734 4.906Z" fill="#05B6C7"/>
<path d="M1.42227 29.6401L0 33.4917H0.633996L0.99559 32.4724H2.5408L2.9024 33.4917H3.53639L2.11412 29.6401H1.42468H1.42227ZM1.16916 31.9839L1.75253 30.34H1.78387L2.36724 31.9839H1.16916Z" fill="white"/>
<path d="M6.36883 29.8703C6.09161 29.7176 5.75894 29.6401 5.37083 29.6401H4.0498V33.4917H5.32985C5.73242 33.4917 6.07473 33.4142 6.35678 33.2592C6.63882 33.1042 6.85578 32.8834 7.00524 32.5945C7.1547 32.3057 7.22943 31.9604 7.22943 31.5589C7.22943 31.1573 7.1547 30.8167 7.00765 30.5279C6.85819 30.2413 6.64605 30.0206 6.36642 29.8679L6.36883 29.8703ZM6.49659 32.3339C6.39776 32.5452 6.2483 32.7073 6.04822 32.8176C5.84813 32.928 5.59743 32.9844 5.2961 32.9844H4.64523V30.1474H5.33226C5.62154 30.1474 5.8626 30.2014 6.05545 30.3118C6.25071 30.4198 6.39535 30.5819 6.49418 30.7909C6.59302 31.0023 6.64123 31.2582 6.64123 31.5612C6.64123 31.8642 6.59061 32.1248 6.49177 32.3362L6.49659 32.3339Z" fill="white"/>
<path d="M8.84708 29.6401L7.4248 33.4917H8.0588L8.42039 32.4724H9.96561L10.3272 33.4917H10.9612L9.53893 29.6401H8.84949H8.84708ZM8.59396 31.9839L9.17733 30.34H9.20867L9.79204 31.9839H8.59396Z" fill="white"/>
<path d="M13.649 29.8045C13.4465 29.6965 13.191 29.6401 12.8848 29.6401H11.4746V33.4917H12.07V32.1366H12.88C13.1862 32.1366 13.4417 32.0826 13.6442 31.9722C13.8467 31.8618 13.9985 31.7139 14.0998 31.5236C14.201 31.3357 14.2517 31.122 14.2517 30.8848C14.2517 30.6476 14.201 30.4363 14.0998 30.2484C13.9985 30.0605 13.8491 29.9102 13.6466 29.8022L13.649 29.8045ZM13.567 31.277C13.5116 31.3921 13.4224 31.4814 13.2995 31.5471C13.1789 31.6129 13.0198 31.6457 12.827 31.6457H12.07V30.138H12.8197C13.0174 30.138 13.1789 30.1709 13.2995 30.2343C13.4224 30.2977 13.5092 30.387 13.567 30.4997C13.6249 30.6124 13.6514 30.7416 13.6514 30.8872C13.6514 31.0328 13.6225 31.162 13.567 31.277Z" fill="white"/>
<path d="M14.7002 30.1404H15.932V33.4917H16.5275V30.1404H17.7593V29.6401H14.7002V30.1404Z" fill="white"/>
<path d="M18.9763 29.6401H18.3809V33.4917H18.9763V29.6401Z" fill="white"/>
<path d="M21.2809 32.7777H21.2375L20.1358 29.6401H19.4922L20.9145 33.4917H21.6039L23.0262 29.6401H22.3825L21.2809 32.7777Z" fill="white"/>
<path d="M24.1374 31.8125H25.8924V31.3146H24.1374V30.1404H26.0201V29.6401H23.542V33.4917H26.0442V32.9914H24.1374V31.8125Z" fill="white"/>
<path d="M29.5857 30.8495C29.458 30.7744 29.3157 30.7368 29.1591 30.7368C29.0024 30.7368 28.8601 30.7744 28.7324 30.8495C28.6046 30.9246 28.501 31.0232 28.4238 31.1476C28.3467 31.2721 28.3081 31.4106 28.3081 31.5632C28.3081 31.7157 28.3467 31.8543 28.4238 31.9787C28.501 32.1031 28.6022 32.204 28.7324 32.2792C28.8601 32.3543 29.0024 32.3918 29.1591 32.3918C29.3157 32.3918 29.458 32.3543 29.5857 32.2792C29.7135 32.204 29.8172 32.1054 29.8919 31.9787C29.969 31.8543 30.0076 31.7157 30.0076 31.5632C30.0076 31.4106 29.969 31.2721 29.8919 31.1476C29.8147 31.0232 29.7135 30.9223 29.5857 30.8495Z" fill="white"/>
<path d="M33.4089 30.2859C33.5897 30.1755 33.7922 30.1191 34.0212 30.1191C34.1465 30.1191 34.2671 30.1356 34.3804 30.1708C34.4937 30.2037 34.5949 30.2553 34.6865 30.3211C34.7781 30.3869 34.8553 30.4691 34.9179 30.563C34.9806 30.6593 35.024 30.7697 35.0481 30.8941H35.6508C35.617 30.6875 35.5519 30.5043 35.4579 30.3422C35.3639 30.1802 35.2434 30.044 35.0963 29.9313C34.9517 29.8185 34.7878 29.734 34.6045 29.6753C34.4213 29.6166 34.2261 29.5884 34.0164 29.5884C33.6765 29.5884 33.3703 29.6682 33.1027 29.8256C32.8351 29.9853 32.623 30.2107 32.4687 30.5066C32.3144 30.8025 32.2373 31.1548 32.2373 31.5658C32.2373 31.9768 32.3144 32.3291 32.4687 32.625C32.623 32.9209 32.8327 33.1487 33.1003 33.306C33.3679 33.4657 33.674 33.5432 34.0164 33.5432C34.2333 33.5432 34.4358 33.5127 34.619 33.4493C34.8022 33.3859 34.9661 33.299 35.1108 33.1839C35.2554 33.0688 35.3711 32.9326 35.4651 32.7729C35.5567 32.6132 35.6194 32.4394 35.6508 32.2516H35.0481C35.024 32.3713 34.9806 32.4817 34.9155 32.5757C34.8528 32.6696 34.7733 32.7494 34.6817 32.8152C34.5901 32.881 34.4888 32.9303 34.3755 32.9632C34.2622 32.996 34.1441 33.0125 34.0188 33.0125C33.7946 33.0125 33.5921 32.9585 33.4113 32.8481C33.2305 32.7377 33.0883 32.5757 32.9846 32.3596C32.8809 32.1435 32.8303 31.8805 32.8303 31.5658C32.8303 31.2511 32.8809 30.9904 32.9846 30.7767C33.0883 30.5607 33.2305 30.3963 33.4089 30.2859Z" fill="white"/>
<path d="M38.4786 31.8853C38.6811 31.7867 38.8329 31.6481 38.9342 31.4696C39.0354 31.2911 39.0861 31.0845 39.0861 30.8473C39.0861 30.6101 39.0354 30.401 38.9342 30.2202C38.8329 30.0394 38.6811 29.8961 38.4786 29.7951C38.2761 29.6918 38.0206 29.6401 37.7144 29.6401H36.3042V33.4917H36.8996V32.0332H37.7096C37.7216 32.0332 37.7337 32.0332 37.7482 32.0332L38.5533 33.4917H39.2331L38.3581 31.9323C38.399 31.9182 38.44 31.9017 38.4762 31.8853H38.4786ZM36.9044 30.138H37.6541C37.8518 30.138 38.0109 30.1662 38.1315 30.2226C38.252 30.2789 38.3436 30.3611 38.399 30.4692C38.4569 30.5748 38.4858 30.7017 38.4858 30.8473C38.4858 30.9929 38.4569 31.115 38.4014 31.2183C38.346 31.3217 38.2568 31.3992 38.1339 31.4532C38.0133 31.5072 37.8542 31.533 37.6614 31.533H36.9044V30.138Z" fill="white"/>
<path d="M40.3561 31.8125H42.1087V31.3146H40.3561V30.1404H42.2388V29.6401H39.7583V33.4917H42.2605V32.9914H40.3561V31.8125Z" fill="white"/>
<path d="M44.1073 29.6401L42.6851 33.4917H43.3191L43.6806 32.4724H45.2259L45.5875 33.4917H46.2215L44.7992 29.6401H44.1097H44.1073ZM43.8542 31.9839L44.4376 30.34H44.4689L45.0523 31.9839H43.8542Z" fill="white"/>
<path d="M46.0669 30.1404H47.2987V33.4917H47.8941V30.1404H49.1284V29.6401H46.0669V30.1404Z" fill="white"/>
<path d="M50.3435 29.6401H49.748V33.4917H50.3435V29.6401Z" fill="white"/>
<path d="M52.6505 32.7777H52.6047L51.5054 29.6401H50.8594L52.2816 33.4917H52.9711L54.3958 29.6401H53.7497L52.6505 32.7777Z" fill="white"/>
<path d="M55.507 31.8125H57.2595V31.3146H55.507V30.1404H57.3897V29.6401H54.9092V33.4917H57.4138V32.9914H55.507V31.8125Z" fill="white"/>
<path d="M60.9554 30.8495C60.8276 30.7744 60.6854 30.7368 60.5287 30.7368C60.372 30.7368 60.2298 30.7744 60.102 30.8495C59.9742 30.9246 59.8706 31.0232 59.7934 31.1476C59.7163 31.2721 59.6777 31.4106 59.6777 31.5632C59.6777 31.7157 59.7163 31.8543 59.7934 31.9787C59.8706 32.1031 59.9718 32.204 60.102 32.2792C60.2298 32.3543 60.372 32.3918 60.5287 32.3918C60.6854 32.3918 60.8276 32.3543 60.9554 32.2792C61.0831 32.204 61.1868 32.1054 61.2615 31.9787C61.3387 31.8543 61.3772 31.7157 61.3772 31.5632C61.3772 31.4106 61.3387 31.2721 61.2615 31.1476C61.1844 31.0232 61.0831 30.9223 60.9554 30.8495Z" fill="white"/>
<path d="M64.3254 29.6401H63.73V33.4917H64.3254V29.6401Z" fill="white"/>
<path d="M67.7436 32.4701H67.7051L65.6946 29.6401H65.1426V33.4917H65.738V30.6664H65.7766L67.7846 33.4917H68.3342V29.6401H67.7436V32.4701Z" fill="white"/>
<path d="M71.75 32.4701H71.7114L69.701 29.6401H69.1489V33.4917H69.7444V30.6664H69.7805L71.791 33.4917H72.3406V29.6401H71.75V32.4701Z" fill="white"/>
<path d="M75.7229 29.8256C75.4553 29.6682 75.1492 29.5884 74.8093 29.5884C74.4694 29.5884 74.1608 29.6682 73.8932 29.8256C73.6257 29.9853 73.4135 30.2107 73.2593 30.5066C73.105 30.8025 73.0278 31.1548 73.0278 31.5658C73.0278 31.9768 73.105 32.3291 73.2593 32.625C73.4135 32.9209 73.6257 33.1487 73.8932 33.306C74.1608 33.4657 74.467 33.5432 74.8093 33.5432C75.1516 33.5432 75.4553 33.4634 75.7229 33.306C75.9905 33.1463 76.2026 32.9209 76.3569 32.625C76.5112 32.3291 76.5883 31.9768 76.5883 31.5658C76.5883 31.1548 76.5112 30.8002 76.3569 30.5066C76.2026 30.2107 75.9905 29.9853 75.7229 29.8256ZM75.8434 32.3596C75.7398 32.5757 75.5976 32.7377 75.4192 32.8481C75.2408 32.9585 75.0359 33.0148 74.8093 33.0148C74.5827 33.0148 74.3778 32.9585 74.1994 32.8481C74.021 32.7377 73.8788 32.5733 73.7751 32.3596C73.6715 32.1435 73.6208 31.8805 73.6208 31.5658C73.6208 31.2511 73.6739 30.9881 73.7751 30.772C73.8788 30.556 74.021 30.3939 74.1994 30.2835C74.3778 30.1732 74.5827 30.1168 74.8093 30.1168C75.0359 30.1168 75.2384 30.1732 75.4192 30.2835C75.6 30.3939 75.7398 30.5583 75.8434 30.772C75.9471 30.9881 75.9977 31.2511 75.9977 31.5658C75.9977 31.8805 75.9447 32.1435 75.8434 32.3596Z" fill="white"/>
<path d="M79.6711 29.6401L78.5694 32.7777H78.5261L77.4244 29.6401H76.7808L78.203 33.4917H78.8925L80.3147 29.6401H79.6711Z" fill="white"/>
<path d="M81.5517 29.6401L80.1294 33.4917H80.7634L81.125 32.4724H82.6702L83.0318 33.4917H83.6658L82.2435 29.6401H81.5541H81.5517ZM81.2986 31.9839L81.8819 30.34H81.9133L82.4966 31.9839H81.2986Z" fill="white"/>
<path d="M83.5137 30.1404H84.7455V33.4917H85.3409V30.1404H86.5752V29.6401H83.5137V30.1404Z" fill="white"/>
<path d="M87.7903 29.6401H87.1948V33.4917H87.7903V29.6401Z" fill="white"/>
<path d="M90.0948 32.7777H90.0514L88.9498 29.6401H88.3062L89.7284 33.4917H90.4179L91.8401 29.6401H91.1965L90.0948 32.7777Z" fill="white"/>
<path d="M92.9538 32.9914V31.8125H94.7063V31.3146H92.9538V30.1404H94.8365V29.6401H92.356V33.4917H94.8582V32.9914H92.9538Z" fill="white"/>
</g>
<defs>
<clipPath id="clip0_2858_429">
<rect width="102.5" height="36" fill="white"/>
</clipPath>
</defs>
</svg>
