<svg width="20" height="20" viewBox="0 0 20 20" fill="none" xmlns="http://www.w3.org/2000/svg">
<path d="M17.0239 0H2.97608C1.33244 0 0 1.33244 0 2.97608V17.0239C0 18.6676 1.33244 20 2.97608 20H17.0239C18.6676 20 20 18.6676 20 17.0239V2.97608C20 1.33244 18.6676 0 17.0239 0Z" fill="#606568"/>
<path d="M15.6474 4.86963H4.35242C3.95014 4.86963 3.62402 5.19574 3.62402 5.59802C3.62402 6.00031 3.95014 6.32642 4.35242 6.32642H15.6474C16.0497 6.32642 16.3758 6.00031 16.3758 5.59802C16.3758 5.19574 16.0497 4.86963 15.6474 4.86963Z" fill="white"/>
<path d="M15.6474 9.27124H4.35242C3.95014 9.27124 3.62402 9.59735 3.62402 9.99964C3.62402 10.4019 3.95014 10.728 4.35242 10.728H15.6474C16.0497 10.728 16.3758 10.4019 16.3758 9.99964C16.3758 9.59735 16.0497 9.27124 15.6474 9.27124Z" fill="white"/>
<path d="M15.6474 13.6736H4.35242C3.95014 13.6736 3.62402 13.9997 3.62402 14.402C3.62402 14.8043 3.95014 15.1304 4.35242 15.1304H15.6474C16.0497 15.1304 16.3758 14.8043 16.3758 14.402C16.3758 13.9997 16.0497 13.6736 15.6474 13.6736Z" fill="white"/>
</svg>
