<svg xmlns="http://www.w3.org/2000/svg" width="31" height="33" viewBox="0 0 31 33" fill="none">
  <path d="M9.00143 30.091H15.0009C15.0009 30.8626 14.6848 31.6025 14.1223 32.1481C13.5597 32.6936 12.797 33.0001 12.0014 33.0001C11.2058 33.0001 10.4426 32.6936 9.88006 32.1481C9.31751 31.6025 9.00143 30.8626 9.00143 30.091ZM1.50247 28.6365C1.31656 28.6472 1.13002 28.6223 0.95403 28.5633C0.778037 28.5042 0.615914 28.412 0.476638 28.2921C0.337362 28.1722 0.223628 28.0269 0.142277 27.8644C0.0609268 27.7019 0.0135337 27.5255 0.00249616 27.3452C0.00249616 27.2899 0.00249616 27.2345 0.00249616 27.1801C-0.00857346 26.9998 0.0172658 26.8192 0.0781916 26.6485C0.139118 26.4778 0.23411 26.3204 0.357754 26.1854C0.481398 26.0503 0.630925 25.9402 0.79846 25.8613C0.965994 25.7824 1.14799 25.7363 1.3339 25.7256C1.39027 25.7219 1.44704 25.7219 1.5034 25.7256H2.25386C2.90768 25.1786 3.44297 24.5113 3.82906 23.7623C4.21516 23.0132 4.44413 22.1974 4.50289 21.3619V17.0001C4.49336 16.0543 4.67621 15.1158 5.04066 14.2384C5.40511 13.361 5.94406 12.5618 6.62701 11.8865C7.30996 11.2111 8.12348 10.6729 9.02094 10.3024C9.9184 9.93195 10.8821 9.73657 11.8574 9.7274H12.0023C13.9717 9.70848 15.8677 10.449 17.2741 11.7861C18.6804 13.1232 19.4817 14.9473 19.5013 16.8572C19.5013 16.9042 19.5013 16.9494 19.5013 17.0001V21.3656C19.5601 22.2011 19.7893 23.0171 20.1756 23.7661C20.5618 24.5151 21.0977 25.1824 21.7517 25.7292H22.5008C22.6867 25.7183 22.8731 25.743 23.0492 25.802C23.2253 25.861 23.3877 25.9531 23.5271 26.073C23.6664 26.193 23.7802 26.3384 23.8614 26.501C23.9427 26.6636 23.99 26.8402 24.0007 27.0205C24.0045 27.0755 24.0045 27.1307 24.0007 27.1856C24.0119 27.366 23.9864 27.5467 23.9255 27.7174C23.8646 27.8881 23.7696 28.0455 23.646 28.1806C23.5223 28.3157 23.3724 28.4259 23.2048 28.5047C23.0372 28.5836 22.8553 28.6296 22.6693 28.6402C22.6126 28.6429 22.5556 28.6429 22.4989 28.6402L1.50247 28.6365Z" fill="#53575A"/>
  <path d="M22.4998 14.0907C25.8132 14.0907 28.4992 11.4858 28.4992 8.27253C28.4992 5.05923 25.8132 2.45435 22.4998 2.45435C19.1865 2.45435 16.5005 5.05923 16.5005 8.27253C16.5005 11.4858 19.1865 14.0907 22.4998 14.0907Z" fill="#FFC06A"/>
  <path d="M22.5006 15.5455C26.6423 15.5455 29.9998 12.2893 29.9998 8.27273C29.9998 4.25611 26.6423 1 22.5006 1C18.359 1 15.0015 4.25611 15.0015 8.27273C15.0015 12.2893 18.359 15.5455 22.5006 15.5455Z" stroke="white" stroke-width="2"/>
</svg>