<svg width="164" height="164" viewBox="0 0 164 164" fill="none" xmlns="http://www.w3.org/2000/svg">
<path d="M0 88.4331V75.6249C0.132698 75.3586 0.236474 75.0788 0.309557 74.7904C0.739621 71.8927 1.03591 68.9709 1.58317 66.0954C10.6488 18.5199 60.4302 -10.9526 106.707 3.83943C125.317 9.68322 141.226 21.9816 151.564 38.5167C161.903 55.0517 165.991 74.7353 163.091 94.0175C160.225 114.02 150.829 130.597 135.698 143.95C135.241 144.299 134.759 144.614 134.255 144.891C132.812 143.808 131.305 142.811 129.743 141.907C121.33 137.627 112.871 133.434 104.426 129.215C102.607 128.406 101.069 127.073 100.009 125.388C98.9486 123.703 98.4135 121.74 98.4715 119.75C98.4317 116.815 98.4251 113.879 98.4903 110.946C98.5068 110.27 98.7276 109.615 99.1238 109.067C103.277 103.765 106.516 97.8084 108.709 91.4414C108.966 90.7786 109.446 90.2259 110.067 89.8787C111.563 89.203 112.826 88.0996 113.697 86.7077C114.567 85.3157 115.006 83.6975 114.958 82.0568C115 78.6408 114.968 75.2258 114.967 71.8098C114.994 69.6533 114.23 67.5615 112.82 65.9297C112.454 65.4973 112.238 64.9585 112.203 64.3934C112.172 59.217 112.048 54.034 112.255 48.8653C112.616 39.7768 108.233 31.8322 99.8723 28.2715C94.3503 25.8563 88.3955 24.5858 82.3682 24.537C76.341 24.4882 70.3664 25.6619 64.806 27.9874C56.1207 31.473 51.9007 38.4862 51.7747 47.8333C51.7017 53.1678 51.8543 58.5043 51.8189 63.8398C51.7892 64.657 51.515 65.4466 51.0317 66.1064C49.7918 67.6626 49.1021 69.5854 49.0705 71.5746C49.0517 75.0966 49.0439 78.6187 49.0705 82.1407C49.0569 83.3999 49.3236 84.6463 49.8511 85.7898C50.3787 86.9333 51.1539 87.9453 52.1207 88.7525C52.5941 89.1601 52.9422 89.6936 53.1246 90.291C54.9341 97.0575 58.0065 103.421 62.1803 109.047C62.5544 109.607 62.7607 110.262 62.7751 110.936C62.8414 113.549 62.7441 116.166 62.816 118.782C62.9475 123.546 60.8635 126.887 56.6701 129.126C49.0012 133.22 41.3695 137.383 33.775 141.614C32.2859 142.536 30.8467 143.536 29.4633 144.61C29.1293 144.457 28.8112 144.272 28.5136 144.057C13.684 131.375 3.90456 113.791 0.956311 94.5069C0.625747 92.4812 0.317297 90.4566 0 88.4331Z" fill="#556080"/>
<path d="M29.459 144.603C30.8424 143.529 32.2816 142.529 33.7707 141.607C41.3748 137.393 49.0065 133.231 56.6658 129.119C60.8592 126.88 62.9432 123.539 62.8116 118.775C62.7398 116.161 62.8371 113.545 62.7707 110.929C62.7564 110.255 62.5501 109.6 62.176 109.04C58.0022 103.414 54.9298 97.0503 53.1203 90.2838C52.9379 89.6864 52.5898 89.1532 52.1164 88.7456C51.1496 87.9383 50.3744 86.9261 49.8468 85.7826C49.3193 84.6391 49.0526 83.3927 49.0662 82.1335C49.0396 78.6115 49.0474 75.0894 49.0662 71.5674C49.0978 69.5782 49.7875 67.6554 51.0274 66.0992C51.5107 65.4394 51.7849 64.6501 51.8146 63.8329C51.85 58.4973 51.6974 53.1606 51.7704 47.8261C51.8964 38.479 56.1164 31.4703 64.8017 27.9803C70.3621 25.6549 76.3366 24.4811 82.3639 24.5299C88.3912 24.5788 94.346 25.8492 99.868 28.2644C108.23 31.8251 112.614 39.7699 112.25 48.8584C112.044 54.0271 112.167 59.2101 112.198 64.3865C112.233 64.9515 112.45 65.4901 112.815 65.9225C114.226 67.5543 114.99 69.6463 114.962 71.8029C114.962 75.2188 114.995 78.6336 114.953 82.0496C115.001 83.6904 114.563 85.3085 113.692 86.7005C112.822 88.0924 111.559 89.196 110.062 89.8718C109.442 90.219 108.962 90.7714 108.705 91.4342C106.512 97.8012 103.273 103.758 99.1195 109.06C98.7233 109.608 98.5025 110.263 98.486 110.939C98.4208 113.872 98.4274 116.808 98.4672 119.743C98.4092 121.733 98.9443 123.695 100.005 125.381C101.065 127.066 102.602 128.399 104.422 129.209C112.867 133.427 121.326 137.62 129.739 141.9C131.301 142.804 132.807 143.8 134.251 144.883C133.927 145.295 133.572 145.68 133.187 146.036C121.448 155.478 107.315 161.473 92.3645 163.351C91.7737 163.5 91.2026 163.717 90.663 164H73.3687C72.4459 163.684 71.5044 163.426 70.5495 163.226C58.716 161.536 47.3969 157.273 37.3892 150.738C34.6032 148.912 32.0946 146.659 29.459 144.603Z" fill="#E6EBEC"/>
</svg>
